<svg version="1.2" xmlns="http://www.w3.org/2000/svg" viewBox="0 0 456 456" width="456" height="456">
	<title>whatsapp</title>
	<style>
		.s0 { fill: #ffffff } 
	</style>
	<g>
		<g>
			<path class="s0" d="m68.5 387.4l22.3-79.3c-14.3-24.4-21.9-52.1-21.9-80.6 0-87.8 71.4-159.2 159.2-159.2 87.7 0 159.1 71.4 159.1 159.2 0 87.8-71.4 159.2-159.1 159.2-27.4 0-54.2-7-77.8-20.3zm85.9-50l4.9 2.9c20.6 12.6 44.4 19.3 68.7 19.3 72.9 0 132.2-59.3 132.2-132.2 0-72.8-59.3-132.1-132.2-132.1-72.8 0-132.1 59.3-132.1 132.1 0 25.4 7.2 50.1 20.8 71.4l3.3 5.1-12.8 45.6z"/>
			<path class="s0" d="m183.4 153.4l-10.4-0.6c-3.2-0.1-6.4 1-8.8 3.1-5.1 4.3-13.1 12.7-15.5 23.7-3.7 16.3 2 36.3 16.6 56.3 14.7 20 42 52 90.4 65.7 15.6 4.4 27.8 1.4 37.3-4.6 7.4-4.8 12.6-12.5 14.5-21.2l1.6-7.7c0.5-2.4-0.7-4.9-3-6l-34.9-16.1c-2.2-1-4.9-0.3-6.5 1.6l-13.7 17.8c-1 1.3-2.8 1.9-4.4 1.3-9.4-3.3-40.8-16.5-58-49.7-0.8-1.4-0.6-3.2 0.5-4.4l13.1-15.1c1.3-1.6 1.6-3.8 0.8-5.7l-15-35.2c-0.8-1.8-2.6-3.1-4.6-3.2z"/>
		</g>
	</g>
</svg>